<?xml version="1.0" encoding="UTF-8" standalone="no"?>
<!DOCTYPE svg PUBLIC "-//W3C//DTD SVG 1.1//EN" "http://www.w3.org/Graphics/SVG/1.1/DTD/svg11.dtd">
<svg width="100%" height="100%" viewBox="0 0 1080 1080" version="1.1" xmlns="http://www.w3.org/2000/svg" xmlns:xlink="http://www.w3.org/1999/xlink" xml:space="preserve" xmlns:serif="http://www.serif.com/" style="fill-rule:evenodd;clip-rule:evenodd;stroke-linejoin:round;stroke-miterlimit:2;">
    <g transform="matrix(-0.760112,0.676771,-0.676771,-0.760112,1227.68,542.602)">
        <circle cx="503.233" cy="450.923" r="460.931" style="fill:url(#_Linear1);"/>
    </g>
    <g transform="matrix(1.10431,0,0,1.10431,665.528,-42.2865)">
        <circle cx="-113.671" cy="527.67" r="400.222" style="fill:rgb(12,21,17);"/>
    </g>
    <g transform="matrix(2.57614,0,0,2.57614,-909.942,-1827.88)">
        <g id="Layer1">
            <g>
                <g transform="matrix(0.230756,0,0,0.228646,-47.7892,830.762)">
                    <g transform="matrix(1211.08,0,0,1211.08,2289.23,865.078)">
                        <path d="M0.232,-0.668C0.19,-0.667 0.158,-0.651 0.136,-0.62C0.113,-0.589 0.102,-0.536 0.102,-0.461C0.102,-0.436 0.104,-0.419 0.109,-0.41C0.114,-0.4 0.116,-0.394 0.116,-0.393C0.08,-0.393 0.053,-0.401 0.036,-0.416C0.018,-0.431 0.009,-0.455 0.009,-0.49C0.009,-0.537 0.021,-0.581 0.044,-0.62C0.067,-0.659 0.105,-0.69 0.156,-0.714C0.207,-0.738 0.271,-0.75 0.35,-0.75C0.366,-0.75 0.387,-0.748 0.414,-0.745C0.462,-0.74 0.496,-0.738 0.516,-0.738C0.551,-0.738 0.581,-0.742 0.606,-0.75C0.604,-0.744 0.6,-0.731 0.595,-0.711C0.59,-0.69 0.58,-0.673 0.567,-0.659C0.553,-0.644 0.534,-0.635 0.511,-0.63C0.472,-0.63 0.425,-0.636 0.371,-0.649L0.329,-0.45L0.475,-0.45L0.459,-0.376L0.313,-0.376L0.232,-0L0.088,-0L0.232,-0.668Z" style="fill:url(#_Linear2);fill-rule:nonzero;"/>
                    </g>
                </g>
                <g transform="matrix(0.230756,0,0,0.228646,-57.0932,830.762)">
                    <g transform="matrix(1211.08,0,0,1211.08,2289.23,865.078)">
                        <path d="M0.232,-0.668C0.19,-0.667 0.158,-0.651 0.136,-0.62C0.113,-0.589 0.102,-0.536 0.102,-0.461C0.102,-0.436 0.104,-0.419 0.109,-0.41C0.114,-0.4 0.116,-0.394 0.116,-0.393C0.08,-0.393 0.053,-0.401 0.036,-0.416C0.018,-0.431 0.009,-0.455 0.009,-0.49C0.009,-0.537 0.021,-0.581 0.044,-0.62C0.067,-0.659 0.105,-0.69 0.156,-0.714C0.207,-0.738 0.271,-0.75 0.35,-0.75C0.366,-0.75 0.387,-0.748 0.414,-0.745C0.462,-0.74 0.496,-0.738 0.516,-0.738C0.551,-0.738 0.581,-0.742 0.606,-0.75C0.604,-0.744 0.6,-0.731 0.595,-0.711C0.59,-0.69 0.58,-0.673 0.567,-0.659C0.553,-0.644 0.534,-0.635 0.511,-0.63C0.472,-0.63 0.425,-0.636 0.371,-0.649L0.329,-0.45L0.475,-0.45L0.459,-0.376L0.313,-0.376L0.232,-0L0.088,-0L0.232,-0.668Z" style="fill:url(#_Linear3);fill-rule:nonzero;"/>
                    </g>
                </g>
                <g transform="matrix(0.229188,0,0,0.229188,-48.159,829.754)">
                    <g transform="matrix(1211.08,0,0,1211.08,2289.23,865.078)">
                        <path d="M0.232,-0.668C0.19,-0.667 0.158,-0.651 0.136,-0.62C0.113,-0.589 0.102,-0.536 0.102,-0.461C0.102,-0.436 0.104,-0.419 0.109,-0.41C0.114,-0.4 0.116,-0.394 0.116,-0.393C0.08,-0.393 0.053,-0.401 0.036,-0.416C0.018,-0.431 0.009,-0.455 0.009,-0.49C0.009,-0.537 0.021,-0.581 0.044,-0.62C0.067,-0.659 0.105,-0.69 0.156,-0.714C0.207,-0.738 0.271,-0.75 0.35,-0.75C0.366,-0.75 0.387,-0.748 0.414,-0.745C0.462,-0.74 0.496,-0.738 0.516,-0.738C0.551,-0.738 0.581,-0.742 0.606,-0.75C0.604,-0.744 0.6,-0.731 0.595,-0.711C0.59,-0.69 0.58,-0.673 0.567,-0.659C0.553,-0.644 0.534,-0.635 0.511,-0.63C0.472,-0.63 0.425,-0.636 0.371,-0.649L0.329,-0.45L0.475,-0.45L0.459,-0.376L0.313,-0.376L0.232,-0L0.088,-0L0.232,-0.668Z" style="fill:rgb(230,230,230);fill-rule:nonzero;"/>
                    </g>
                </g>
            </g>
        </g>
    </g>
    <defs>
        <linearGradient id="_Linear1" x1="0" y1="0" x2="1" y2="0" gradientUnits="userSpaceOnUse" gradientTransform="matrix(921.861,0,0,921.861,42.3023,450.923)"><stop offset="0" style="stop-color:rgb(98,232,172);stop-opacity:1"/><stop offset="1" style="stop-color:rgb(208,74,67);stop-opacity:1"/></linearGradient>
        <linearGradient id="_Linear2" x1="0" y1="0" x2="1" y2="0" gradientUnits="userSpaceOnUse" gradientTransform="matrix(3.424,0,0,1.25,-1.4825,-0.375)"><stop offset="0" style="stop-color:rgb(233,102,96);stop-opacity:1"/><stop offset="0.15" style="stop-color:rgb(145,153,119);stop-opacity:1"/><stop offset="0.33" style="stop-color:rgb(74,194,138);stop-opacity:1"/><stop offset="1" style="stop-color:rgb(49,208,144);stop-opacity:1"/></linearGradient>
        <linearGradient id="_Linear3" x1="0" y1="0" x2="1" y2="0" gradientUnits="userSpaceOnUse" gradientTransform="matrix(3.424,0,0,1.25,-1.4825,-0.375)"><stop offset="0" style="stop-color:rgb(233,102,96);stop-opacity:1"/><stop offset="0.67" style="stop-color:rgb(208,116,102);stop-opacity:1"/><stop offset="0.85" style="stop-color:rgb(137,157,121);stop-opacity:1"/><stop offset="1" style="stop-color:rgb(49,208,144);stop-opacity:1"/></linearGradient>
    </defs>
</svg>
