<?xml version="1.0" encoding="UTF-8" standalone="no"?>
<!DOCTYPE svg PUBLIC "-//W3C//DTD SVG 1.1//EN" "http://www.w3.org/Graphics/SVG/1.1/DTD/svg11.dtd">
<svg width="100%" height="100%" viewBox="0 0 1080 1080" version="1.1" xmlns="http://www.w3.org/2000/svg" xmlns:xlink="http://www.w3.org/1999/xlink" xml:space="preserve" xmlns:serif="http://www.serif.com/" style="fill-rule:evenodd;clip-rule:evenodd;stroke-linejoin:round;stroke-miterlimit:2;">
    <g transform="matrix(2.21647,0,0,2.21647,-706.824,-1494.61)">
        <g id="v1">
            <g>
                <g transform="matrix(-0.342938,0.305337,-0.305337,-0.342938,872.788,919.123)">
                    <circle cx="503.233" cy="450.923" r="460.931" style="fill:url(#_Linear1);"/>
                </g>
                <g transform="matrix(0.498228,0,0,0.498228,619.161,655.24)">
                    <circle cx="-113.671" cy="527.67" r="400.222" style="fill:rgb(12,21,17);fill-opacity:0.65;"/>
                </g>
                <g transform="matrix(0.261291,0,0,0.258902,-121.083,816.481)">
                    <clipPath id="_clip2">
                        <path d="M3190.76,-61.234L2896.1,1076.32L2383.89,941.183L2678.55,-196.372L3190.76,-61.234Z"/>
                    </clipPath>
                    <g clip-path="url(#_clip2)">
                        <g transform="matrix(1211.08,0,0,1211.08,2845.11,865.078)">
                        </g>
                        <text x="2289.23px" y="865.078px" style="font-family:'Lobster-Regular', 'Lobster';font-size:1211.08px;fill:rgb(0,173,199);">F</text>
                    </g>
                </g>
                <g transform="matrix(0.264489,0,0,0.26207,-147.738,821.184)">
                    <clipPath id="_clip3">
                        <path d="M2793.86,-214.731L2470.53,1033.52L1908.47,885.228L2231.8,-363.02L2793.86,-214.731Z"/>
                    </clipPath>
                    <g clip-path="url(#_clip3)">
                        <g transform="matrix(1211.08,0,0,1211.08,2845.11,865.078)">
                        </g>
                        <text x="2289.23px" y="865.078px" style="font-family:'Lobster-Regular', 'Lobster';font-size:1211.08px;fill:url(#_Linear4);">F</text>
                    </g>
                </g>
                <g transform="matrix(0.239471,0,0,0.239471,-75.5305,825.528)">
                    <g transform="matrix(1211.08,0,0,1211.08,2845.11,865.078)">
                    </g>
                    <text x="2289.23px" y="865.078px" style="font-family:'Lobster-Regular', 'Lobster';font-size:1211.08px;fill:rgb(230,230,230);">F</text>
                </g>
            </g>
        </g>
    </g>
    <defs>
        <linearGradient id="_Linear1" x1="0" y1="0" x2="1" y2="0" gradientUnits="userSpaceOnUse" gradientTransform="matrix(921.861,0,0,921.861,42.3023,450.923)"><stop offset="0" style="stop-color:rgb(0,176,199);stop-opacity:1"/><stop offset="1" style="stop-color:rgb(208,74,67);stop-opacity:1"/></linearGradient>
        <linearGradient id="_Linear4" x1="0" y1="0" x2="1" y2="0" gradientUnits="userSpaceOnUse" gradientTransform="matrix(4146.72,0,0,1513.84,493.809,410.925)"><stop offset="0" style="stop-color:rgb(233,102,96);stop-opacity:1"/><stop offset="0.67" style="stop-color:rgb(208,116,102);stop-opacity:1"/><stop offset="0.85" style="stop-color:rgb(137,157,121);stop-opacity:1"/><stop offset="1" style="stop-color:rgb(49,208,144);stop-opacity:1"/></linearGradient>
    </defs>
</svg>
