<?xml version="1.0" encoding="UTF-8" standalone="no"?>
<!DOCTYPE svg PUBLIC "-//W3C//DTD SVG 1.1//EN" "http://www.w3.org/Graphics/SVG/1.1/DTD/svg11.dtd">
<svg width="100%" height="100%" viewBox="0 0 1790 590" version="1.1" xmlns="http://www.w3.org/2000/svg" xmlns:xlink="http://www.w3.org/1999/xlink" xml:space="preserve" xmlns:serif="http://www.serif.com/" style="fill-rule:evenodd;clip-rule:evenodd;stroke-linecap:round;stroke-linejoin:round;stroke-miterlimit:1.5;">
    <g>
        <clipPath id="_clip1">
            <circle cx="300.281" cy="295" r="295"/>
        </clipPath>
        <g clip-path="url(#_clip1)">
            <rect x="-25.832" y="-25.232" width="652.225" height="646.345" style="fill:rgb(56,62,77);"/>
            <g>
                <path d="M404.552,-31.113L-83.804,383.838L-66.479,398.56L421.877,-16.391L404.552,-31.113Z" style="fill:url(#_Linear2);"/>
                <path d="M504.45,53.743L16.094,468.694L33.42,483.415L521.776,68.464L504.45,53.743Z" style="fill:url(#_Linear3);"/>
                <path d="M596.05,129.285L107.694,544.236L125.02,558.957L613.376,144.007L596.05,129.285Z" style="fill:url(#_Linear4);"/>
                <path d="M688.852,204.191L200.496,619.142L217.822,633.863L706.178,218.912L688.852,204.191Z" style="fill:url(#_Linear5);"/>
            </g>
            <g>
                <circle cx="257.344" cy="108.789" r="72.519" style="fill:url(#_Linear6);stroke:rgb(56,62,77);stroke-width:40px;"/>
                <circle cx="195.06" cy="328.116" r="59.537" style="fill:url(#_Linear7);stroke:rgb(56,62,77);stroke-width:40px;"/>
                <circle cx="407.991" cy="298.776" r="63.336" style="fill:url(#_Linear8);stroke:rgb(56,62,77);stroke-width:40px;"/>
                <circle cx="371.013" cy="487.775" r="68.748" style="fill:url(#_Linear9);stroke:rgb(56,62,77);stroke-width:40px;"/>
            </g>
        </g>
    </g>
    <g>
        <path d="M749.018,199.135L745.423,199.135C731.041,199.135 719.874,204.047 711.92,213.871C703.967,223.695 699.99,241.13 699.99,266.176C699.99,274.164 700.752,279.724 702.278,282.855C703.803,285.986 704.566,287.767 704.566,288.199C692.799,288.199 684.028,285.77 678.254,280.912C672.479,276.054 669.592,268.011 669.592,256.783C669.592,241.454 673.405,227.473 681.032,214.842C688.659,202.212 700.807,192.01 717.477,184.237C734.146,176.464 755.338,172.577 781.051,172.577C788.895,172.577 799.681,173.549 813.41,175.492C814.717,175.708 819.892,176.356 828.935,177.436C837.978,178.515 847.185,179.055 856.555,179.055C872.898,179.055 888.696,177.004 903.949,172.901C901.334,187.152 896.867,199.081 890.548,208.689C884.229,218.297 875.186,223.101 863.419,223.101C855.574,223.101 848.601,222.291 842.5,220.672C836.399,219.053 829.099,216.624 820.6,213.385C811.884,210.146 803.277,207.339 794.779,204.964L780.724,269.738L821.908,269.738L816.678,293.705L775.494,293.705L749.018,415.479L701.951,415.479L749.018,199.135ZM849.037,417.423C838.578,417.423 830.134,414.184 823.706,407.706C817.277,401.229 814.063,391.513 814.063,378.558C814.063,373.16 814.935,366.143 816.678,357.507L838.904,253.545L885.972,253.545L862.438,363.66C861.567,366.899 861.131,370.354 861.131,374.024C861.131,378.342 862.166,381.419 864.236,383.254C866.306,385.09 869.738,386.007 874.532,386.007C880.851,386.007 886.735,383.362 892.182,378.072C897.63,372.783 901.552,365.927 903.949,357.507L917.677,357.507C909.615,380.825 899.264,396.641 886.626,404.954C873.987,413.266 861.458,417.423 849.037,417.423Z" style="fill:url(#_Linear10);fill-rule:nonzero;"/>
        <path d="M943.172,417.423C930.752,417.423 920.401,413.212 912.121,404.792C903.84,396.371 899.7,383.2 899.7,365.28C899.7,349.302 902.914,332.515 909.342,314.918C915.771,297.321 925.358,282.423 938.106,270.224C950.853,258.025 966.052,251.925 983.703,251.925C992.637,251.925 999.283,253.437 1003.64,256.46C1008,259.482 1010.18,263.477 1010.18,268.443L1010.18,269.738L1026.19,195.248L1074.57,188.771L1036.98,363.66C1036.11,366.899 1035.67,370.354 1035.67,374.024C1035.67,378.342 1036.71,381.419 1038.78,383.254C1040.85,385.09 1044.28,386.007 1049.07,386.007C1055.18,386.007 1060.46,383.416 1064.93,378.234C1069.39,373.052 1072.93,366.143 1075.55,357.507L1089.28,357.507C1075.99,396.155 1054.09,415.479 1023.58,415.479C1014.64,415.479 1007.4,413.104 1001.84,408.354C996.287,403.604 992.855,396.695 991.547,387.627C985.882,396.263 979.072,403.388 971.119,409.002C963.165,414.616 953.85,417.423 943.172,417.423ZM964.418,386.007C969.648,386.007 974.932,383.632 980.271,378.882C985.609,374.132 989.259,367.547 991.22,359.126L991.22,357.507L1007.24,283.341C1005.27,275.784 1000.81,272.005 993.835,272.005C985.119,272.005 977.274,277.025 970.301,287.065C963.328,297.105 957.881,309.196 953.959,323.339C950.036,337.481 948.075,349.95 948.075,360.745C948.075,371.541 949.655,378.45 952.815,381.473C955.974,384.496 959.842,386.007 964.418,386.007Z" style="fill:url(#_Linear11);fill-rule:nonzero;"/>
        <path d="M1114.77,417.423C1102.35,417.423 1092,413.212 1083.72,404.792C1075.44,396.371 1071.3,383.2 1071.3,365.28C1071.3,349.302 1074.52,332.515 1080.94,314.918C1087.37,297.321 1096.96,282.423 1109.71,270.224C1122.45,258.025 1137.65,251.925 1155.3,251.925C1164.24,251.925 1170.88,253.437 1175.24,256.46C1179.6,259.482 1181.78,263.477 1181.78,268.443L1181.78,269.738L1197.8,195.248L1246.17,188.771L1208.58,363.66C1207.71,366.899 1207.27,370.354 1207.27,374.024C1207.27,378.342 1208.31,381.419 1210.38,383.254C1212.45,385.09 1215.88,386.007 1220.67,386.007C1226.78,386.007 1232.06,383.416 1236.53,378.234C1240.99,373.052 1244.54,366.143 1247.15,357.507L1260.88,357.507C1247.59,396.155 1225.69,415.479 1195.18,415.479C1186.25,415.479 1179,413.104 1173.44,408.354C1167.89,403.604 1164.45,396.695 1163.15,387.627C1157.48,396.263 1150.67,403.388 1142.72,409.002C1134.77,414.616 1125.45,417.423 1114.77,417.423ZM1136.02,386.007C1141.25,386.007 1146.53,383.632 1151.87,378.882C1157.21,374.132 1160.86,367.547 1162.82,359.126L1162.82,357.507L1178.84,283.341C1176.88,275.784 1172.41,272.005 1165.44,272.005C1156.72,272.005 1148.88,277.025 1141.9,287.065C1134.93,297.105 1129.48,309.196 1125.56,323.339C1121.64,337.481 1119.68,349.95 1119.68,360.745C1119.68,371.541 1121.26,378.45 1124.41,381.473C1127.58,384.496 1131.44,386.007 1136.02,386.007Z" style="fill:url(#_Linear12);fill-rule:nonzero;"/>
        <path d="M1278.86,417.423C1268.4,417.423 1259.95,414.13 1253.52,407.545C1247.1,400.959 1243.88,391.081 1243.88,377.91C1243.88,372.513 1244.75,365.496 1246.5,356.859L1281.47,194.601L1329.85,188.123L1292.26,363.013C1291.38,366.251 1290.95,369.382 1290.95,372.405C1290.95,381.041 1295.42,385.359 1304.35,385.359C1308.27,385.359 1311.76,384.712 1314.81,383.416C1313.94,394.212 1310.07,402.579 1303.21,408.516C1296.34,414.454 1288.23,417.423 1278.86,417.423Z" style="fill:url(#_Linear13);fill-rule:nonzero;"/>
        <path d="M1350.76,416.775C1343.57,416.775 1337.47,414.292 1332.46,409.326C1327.45,404.36 1324.94,398.314 1324.94,391.189C1324.94,384.064 1327.45,377.964 1332.46,372.891C1337.47,367.817 1343.57,365.28 1350.76,365.28C1357.95,365.28 1364.11,367.817 1369.23,372.891C1374.35,377.964 1376.91,384.064 1376.91,391.189C1376.91,398.314 1374.35,404.36 1369.23,409.326C1364.11,414.292 1357.95,416.775 1350.76,416.775Z" style="fill:url(#_Linear14);fill-rule:nonzero;"/>
        <path d="M1440,417.423C1427.58,417.423 1417.23,413.212 1408.94,404.792C1400.66,396.371 1396.52,383.2 1396.52,365.28C1396.52,349.302 1399.74,332.515 1406.17,314.918C1412.6,297.321 1422.18,282.423 1434.93,270.224C1447.68,258.025 1462.88,251.925 1480.53,251.925C1489.46,251.925 1496.11,253.437 1500.46,256.46C1504.82,259.482 1507,263.477 1507,268.443L1507,270.71L1510.6,253.545L1557.66,253.545L1534.13,363.66C1533.26,366.899 1532.82,370.354 1532.82,374.024C1532.82,383.308 1537.29,387.95 1546.23,387.95C1552.33,387.95 1557.61,385.144 1562.08,379.53C1566.55,373.916 1570.09,366.575 1572.7,357.507L1586.43,357.507C1578.37,380.825 1568.4,396.641 1556.52,404.954C1544.65,413.266 1532.72,417.423 1520.73,417.423C1511.58,417.423 1504.22,414.886 1498.67,409.812C1493.11,404.738 1489.79,397.343 1488.7,387.627C1482.38,396.479 1475.35,403.658 1467.62,409.164C1459.88,414.67 1450.67,417.423 1440,417.423ZM1461.24,386.007C1466.69,386.007 1472.08,383.47 1477.42,378.396C1482.76,373.322 1486.41,366.359 1488.37,357.507L1504.06,284.312C1504.06,281.505 1502.97,278.753 1500.79,276.054C1498.61,273.355 1495.24,272.005 1490.66,272.005C1481.94,272.005 1474.1,277.025 1467.13,287.065C1460.15,297.105 1454.7,309.196 1450.78,323.339C1446.86,337.481 1444.9,349.95 1444.9,360.745C1444.9,371.541 1446.48,378.45 1449.64,381.473C1452.8,384.496 1456.67,386.007 1461.24,386.007Z" style="fill:url(#_Linear15);fill-rule:nonzero;"/>
        <path d="M1594.93,253.545L1642,253.545L1637.75,273.625C1645.15,267.147 1651.86,262.181 1657.85,258.727C1663.84,255.272 1670.32,253.545 1677.3,253.545C1684.27,253.545 1689.77,255.92 1693.8,260.67C1697.83,265.42 1699.85,271.142 1699.85,277.835C1699.85,284.096 1697.78,289.602 1693.64,294.352C1689.5,299.102 1683.72,301.477 1676.32,301.477C1671.52,301.477 1668.31,300.344 1666.67,298.077C1665.04,295.81 1663.79,292.517 1662.91,288.199C1662.26,285.392 1661.61,283.341 1660.95,282.045C1660.3,280.75 1659.1,280.102 1657.36,280.102C1652.78,280.102 1648.91,281.02 1645.75,282.855C1642.59,284.69 1638.51,287.875 1633.5,292.409L1607.35,415.479L1560.28,415.479L1594.93,253.545Z" style="fill:url(#_Linear16);fill-rule:nonzero;"/>
        <path d="M1726.32,417.423C1715.21,417.423 1706.99,414.076 1701.65,407.383C1696.31,400.689 1693.64,391.837 1693.64,380.825C1693.64,375.212 1694.29,369.49 1695.6,363.66L1716.52,266.5L1705.73,266.5L1708.35,253.545L1719.13,253.545L1728.94,208.851L1777.31,202.373C1775.35,210.578 1774.26,215.436 1774.05,216.948C1772.52,222.993 1769.9,235.192 1766.2,253.545L1785.81,253.545L1783.2,266.5L1763.59,266.5L1742.67,363.66C1741.58,368.41 1741.03,372.189 1741.03,374.996C1741.03,382.769 1744.85,386.655 1752.47,386.655C1756.39,386.655 1759.23,386.331 1760.97,385.683C1756.61,398.206 1751.49,406.627 1745.61,410.945C1739.73,415.263 1733.3,417.423 1726.32,417.423Z" style="fill:url(#_Linear17);fill-rule:nonzero;"/>
        <path d="M764.234,197.992L760.663,197.992C746.379,197.992 735.287,202.915 727.387,212.763C719.488,222.61 715.538,240.086 715.538,265.191C715.538,273.199 716.296,278.772 717.811,281.91C719.325,285.048 720.083,286.834 720.083,287.267C708.396,287.267 699.685,284.832 693.95,279.962C688.214,275.093 685.347,267.031 685.347,255.777C685.347,240.411 689.134,226.397 696.709,213.736C704.284,201.076 716.35,190.85 732.906,183.058C749.463,175.267 770.51,171.371 796.048,171.371C803.839,171.371 814.552,172.345 828.187,174.293C829.486,174.509 834.626,175.159 843.607,176.241C852.589,177.323 861.733,177.864 871.039,177.864C887.271,177.864 902.962,175.808 918.111,171.696C915.514,185.98 911.078,197.937 904.801,207.568C898.525,217.199 889.543,222.015 877.856,222.015C870.065,222.015 863.14,221.203 857.08,219.58C851.02,217.957 843.77,215.522 835.329,212.276C826.672,209.029 818.123,206.216 809.683,203.835L795.723,268.762L836.628,268.762L831.433,292.785L790.529,292.785L764.234,414.849L717.486,414.849L764.234,197.992ZM863.572,416.797C853.184,416.797 844.798,413.55 838.413,407.058C832.029,400.565 828.836,390.826 828.836,377.84C828.836,372.43 829.702,365.396 831.433,356.739L853.509,252.531L900.256,252.531L876.882,362.907C876.017,366.153 875.584,369.616 875.584,373.295C875.584,377.624 876.612,380.708 878.668,382.548C880.724,384.387 884.133,385.307 888.894,385.307C895.17,385.307 901.014,382.656 906.424,377.353C911.835,372.051 915.731,365.179 918.111,356.739L931.746,356.739C923.738,380.113 913.458,395.966 900.906,404.298C888.353,412.631 875.909,416.797 863.572,416.797Z" style="fill:rgb(230,230,230);fill-rule:nonzero;"/>
        <path d="M953.821,416.797C941.485,416.797 931.205,412.576 922.981,404.136C914.757,395.695 910.645,382.493 910.645,364.53C910.645,348.515 913.837,331.688 920.221,314.049C926.606,296.411 936.129,281.477 948.79,269.249C961.45,257.021 976.546,250.907 994.076,250.907C1002.95,250.907 1009.55,252.422 1013.88,255.452C1018.21,258.482 1020.37,262.486 1020.37,267.464L1020.37,268.762L1036.28,194.096L1084.33,187.603L1046.99,362.907C1046.13,366.153 1045.69,369.616 1045.69,373.295C1045.69,377.624 1046.72,380.708 1048.78,382.548C1050.83,384.387 1054.24,385.307 1059,385.307C1065.06,385.307 1070.31,382.71 1074.75,377.516C1079.18,372.321 1082.7,365.396 1085.3,356.739L1098.93,356.739C1085.73,395.479 1063.98,414.849 1033.68,414.849C1024.81,414.849 1017.61,412.468 1012.09,407.707C1006.58,402.946 1003.17,396.02 1001.87,386.93C996.241,395.587 989.477,402.729 981.578,408.356C973.678,413.983 964.426,416.797 953.821,416.797ZM974.923,385.307C980.117,385.307 985.365,382.926 990.668,378.165C995.97,373.404 999.595,366.803 1001.54,358.362L1001.54,356.739L1017.45,282.397C1015.5,274.822 1011.07,271.035 1004.14,271.035C995.483,271.035 987.692,276.067 980.766,286.13C973.841,296.194 968.43,308.314 964.534,322.49C960.639,336.666 958.691,349.164 958.691,359.985C958.691,370.806 960.26,377.732 963.398,380.762C966.536,383.792 970.378,385.307 974.923,385.307Z" style="fill:rgb(230,230,230);fill-rule:nonzero;"/>
        <path d="M1121.01,416.797C1108.67,416.797 1098.39,412.576 1090.17,404.136C1081.94,395.695 1077.83,382.493 1077.83,364.53C1077.83,348.515 1081.03,331.688 1087.41,314.049C1093.79,296.411 1103.32,281.477 1115.98,269.249C1128.64,257.021 1143.73,250.907 1161.26,250.907C1170.14,250.907 1176.74,252.422 1181.07,255.452C1185.4,258.482 1187.56,262.486 1187.56,267.464L1187.56,268.762L1203.47,194.096L1251.51,187.603L1214.18,362.907C1213.31,366.153 1212.88,369.616 1212.88,373.295C1212.88,377.624 1213.91,380.708 1215.97,382.548C1218.02,384.387 1221.43,385.307 1226.19,385.307C1232.25,385.307 1237.5,382.71 1241.94,377.516C1246.37,372.321 1249.89,365.396 1252.49,356.739L1266.12,356.739C1252.92,395.479 1231.17,414.849 1200.87,414.849C1192,414.849 1184.8,412.468 1179.28,407.707C1173.76,402.946 1170.35,396.02 1169.06,386.93C1163.43,395.587 1156.66,402.729 1148.77,408.356C1140.87,413.983 1131.61,416.797 1121.01,416.797ZM1142.11,385.307C1147.31,385.307 1152.55,382.926 1157.86,378.165C1163.16,373.404 1166.78,366.803 1168.73,358.362L1168.73,356.739L1184.64,282.397C1182.69,274.822 1178.25,271.035 1171.33,271.035C1162.67,271.035 1154.88,276.067 1147.95,286.13C1141.03,296.194 1135.62,308.314 1131.72,322.49C1127.83,336.666 1125.88,349.164 1125.88,359.985C1125.88,370.806 1127.45,377.732 1130.59,380.762C1133.72,383.792 1137.57,385.307 1142.11,385.307Z" style="fill:rgb(230,230,230);fill-rule:nonzero;"/>
        <path d="M1280.73,416.797C1270.34,416.797 1261.96,413.496 1255.57,406.895C1249.19,400.294 1245.99,390.393 1245.99,377.191C1245.99,371.78 1246.86,364.747 1248.59,356.09L1283.33,193.447L1331.37,186.954L1294.04,362.258C1293.17,365.504 1292.74,368.642 1292.74,371.672C1292.74,380.329 1297.18,384.658 1306.05,384.658C1309.95,384.658 1313.41,384.008 1316.44,382.71C1315.58,393.531 1311.73,401.918 1304.92,407.869C1298.1,413.821 1290.04,416.797 1280.73,416.797Z" style="fill:rgb(230,230,230);fill-rule:nonzero;"/>
        <path d="M1348.9,416.147C1341.76,416.147 1335.7,413.659 1330.73,408.681C1325.75,403.703 1323.26,397.643 1323.26,390.501C1323.26,383.359 1325.75,377.245 1330.73,372.159C1335.7,367.073 1341.76,364.53 1348.9,364.53C1356.05,364.53 1362.16,367.073 1367.25,372.159C1372.33,377.245 1374.88,383.359 1374.88,390.501C1374.88,397.643 1372.33,403.703 1367.25,408.681C1362.16,413.659 1356.05,416.147 1348.9,416.147Z" style="fill:rgb(230,230,230);fill-rule:nonzero;"/>
        <path d="M1434.28,416.797C1421.95,416.797 1411.67,412.576 1403.44,404.136C1395.22,395.695 1391.11,382.493 1391.11,364.53C1391.11,348.515 1394.3,331.688 1400.68,314.049C1407.07,296.411 1416.59,281.477 1429.25,269.249C1441.91,257.021 1457.01,250.907 1474.54,250.907C1483.41,250.907 1490.01,252.422 1494.34,255.452C1498.67,258.482 1500.83,262.486 1500.83,267.464L1500.83,269.736L1504.4,252.531L1551.15,252.531L1527.78,362.907C1526.91,366.153 1526.48,369.616 1526.48,373.295C1526.48,382.602 1530.92,387.255 1539.79,387.255C1545.85,387.255 1551.1,384.441 1555.54,378.814C1559.97,373.187 1563.49,365.829 1566.09,356.739L1579.72,356.739C1571.71,380.113 1561.81,395.966 1550.02,404.298C1538.22,412.631 1526.37,416.797 1514.47,416.797C1505.38,416.797 1498.08,414.254 1492.56,409.168C1487.04,404.082 1483.74,396.669 1482.65,386.93C1476.38,395.804 1469.4,403 1461.72,408.518C1454.03,414.037 1444.89,416.797 1434.28,416.797ZM1455.38,385.307C1460.8,385.307 1466.15,382.764 1471.45,377.678C1476.76,372.592 1480.38,365.612 1482.33,356.739L1497.91,283.371C1497.91,280.557 1496.83,277.798 1494.67,275.093C1492.5,272.387 1489.15,271.035 1484.6,271.035C1475.94,271.035 1468.15,276.067 1461.23,286.13C1454.3,296.194 1448.89,308.314 1445,322.49C1441.1,336.666 1439.15,349.164 1439.15,359.985C1439.15,370.806 1440.72,377.732 1443.86,380.762C1447,383.792 1450.84,385.307 1455.38,385.307Z" style="fill:rgb(230,230,230);fill-rule:nonzero;"/>
        <path d="M1584.91,252.531L1631.66,252.531L1627.44,272.658C1634.8,266.165 1641.46,261.188 1647.41,257.725C1653.36,254.262 1659.8,252.531 1666.72,252.531C1673.65,252.531 1679.11,254.911 1683.12,259.673C1687.12,264.434 1689.12,270.169 1689.12,276.878C1689.12,283.155 1687.07,288.673 1682.95,293.435C1678.84,298.196 1673.11,300.577 1665.75,300.577C1660.99,300.577 1657.8,299.441 1656.17,297.168C1654.55,294.896 1653.31,291.595 1652.44,287.267C1651.79,284.453 1651.14,282.397 1650.49,281.099C1649.84,279.8 1648.65,279.151 1646.92,279.151C1642.38,279.151 1638.53,280.071 1635.4,281.91C1632.26,283.75 1628.2,286.942 1623.22,291.487L1597.25,414.849L1550.5,414.849L1584.91,252.531Z" style="fill:rgb(230,230,230);fill-rule:nonzero;"/>
        <path d="M1712.17,416.797C1701.13,416.797 1692.97,413.442 1687.66,406.733C1682.36,400.024 1679.71,391.15 1679.71,380.113C1679.71,374.486 1680.36,368.75 1681.66,362.907L1702.43,265.516L1691.72,265.516L1694.32,252.531L1705.03,252.531L1714.77,207.731L1762.82,201.238C1760.87,209.462 1759.79,214.332 1759.57,215.847C1758.06,221.906 1755.46,234.134 1751.78,252.531L1771.26,252.531L1768.66,265.516L1749.18,265.516L1728.4,362.907C1727.32,367.668 1726.78,371.456 1726.78,374.269C1726.78,382.061 1730.57,385.956 1738.14,385.956C1742.04,385.956 1744.85,385.632 1746.58,384.982C1742.26,397.535 1737.17,405.975 1731.33,410.304C1725.48,414.632 1719.1,416.797 1712.17,416.797Z" style="fill:rgb(230,230,230);fill-rule:nonzero;"/>
    </g>
    <defs>
        <linearGradient id="_Linear2" x1="0" y1="0" x2="1" y2="-0.0462856" gradientUnits="userSpaceOnUse" gradientTransform="matrix(262.115,-222.716,914.341,776.906,1007.75,894.081)"><stop offset="0" style="stop-color:rgb(231,96,87);stop-opacity:1"/><stop offset="0.15" style="stop-color:rgb(190,157,139);stop-opacity:1"/><stop offset="0.33" style="stop-color:rgb(157,205,181);stop-opacity:1"/><stop offset="0.99" style="stop-color:rgb(146,222,196);stop-opacity:1"/><stop offset="1" style="stop-color:rgb(156,225,201);stop-opacity:1"/><stop offset="1" style="stop-color:rgb(184,233,216);stop-opacity:1"/><stop offset="1" style="stop-color:rgb(219,244,235);stop-opacity:1"/></linearGradient>
        <linearGradient id="_Linear3" x1="0" y1="0" x2="1" y2="-0.0462856" gradientUnits="userSpaceOnUse" gradientTransform="matrix(262.115,-222.716,914.341,776.906,1107.65,978.937)"><stop offset="0" style="stop-color:rgb(231,96,87);stop-opacity:1"/><stop offset="0.15" style="stop-color:rgb(190,157,139);stop-opacity:1"/><stop offset="0.33" style="stop-color:rgb(157,205,181);stop-opacity:1"/><stop offset="0.99" style="stop-color:rgb(146,222,196);stop-opacity:1"/><stop offset="1" style="stop-color:rgb(156,225,201);stop-opacity:1"/><stop offset="1" style="stop-color:rgb(184,233,216);stop-opacity:1"/><stop offset="1" style="stop-color:rgb(219,244,235);stop-opacity:1"/></linearGradient>
        <linearGradient id="_Linear4" x1="0" y1="0" x2="1" y2="-0.0462856" gradientUnits="userSpaceOnUse" gradientTransform="matrix(262.115,-222.716,914.341,776.906,1199.25,1054.48)"><stop offset="0" style="stop-color:rgb(231,96,87);stop-opacity:1"/><stop offset="0.15" style="stop-color:rgb(190,157,139);stop-opacity:1"/><stop offset="0.33" style="stop-color:rgb(157,205,181);stop-opacity:1"/><stop offset="0.99" style="stop-color:rgb(146,222,196);stop-opacity:1"/><stop offset="1" style="stop-color:rgb(156,225,201);stop-opacity:1"/><stop offset="1" style="stop-color:rgb(184,233,216);stop-opacity:1"/><stop offset="1" style="stop-color:rgb(219,244,235);stop-opacity:1"/></linearGradient>
        <linearGradient id="_Linear5" x1="0" y1="0" x2="1" y2="-0.0462856" gradientUnits="userSpaceOnUse" gradientTransform="matrix(262.115,-222.716,914.341,776.906,1292.05,1129.38)"><stop offset="0" style="stop-color:rgb(231,96,87);stop-opacity:1"/><stop offset="0.15" style="stop-color:rgb(190,157,139);stop-opacity:1"/><stop offset="0.33" style="stop-color:rgb(157,205,181);stop-opacity:1"/><stop offset="0.99" style="stop-color:rgb(146,222,196);stop-opacity:1"/><stop offset="1" style="stop-color:rgb(156,225,201);stop-opacity:1"/><stop offset="1" style="stop-color:rgb(184,233,216);stop-opacity:1"/><stop offset="1" style="stop-color:rgb(219,244,235);stop-opacity:1"/></linearGradient>
        <linearGradient id="_Linear6" x1="0" y1="0" x2="1" y2="0" gradientUnits="userSpaceOnUse" gradientTransform="matrix(207.495,502.602,-502.602,207.495,217.434,50.7004)"><stop offset="0" style="stop-color:rgb(154,225,200);stop-opacity:1"/><stop offset="1" style="stop-color:rgb(226,81,76);stop-opacity:1"/></linearGradient>
        <linearGradient id="_Linear7" x1="0" y1="0" x2="1" y2="0" gradientUnits="userSpaceOnUse" gradientTransform="matrix(207.495,502.602,-502.602,207.495,200.496,40.9996)"><stop offset="0" style="stop-color:rgb(154,225,200);stop-opacity:1"/><stop offset="1" style="stop-color:rgb(226,81,76);stop-opacity:1"/></linearGradient>
        <linearGradient id="_Linear8" x1="0" y1="0" x2="1" y2="0" gradientUnits="userSpaceOnUse" gradientTransform="matrix(207.495,502.602,-502.602,207.495,200.496,40.9996)"><stop offset="0" style="stop-color:rgb(154,225,200);stop-opacity:1"/><stop offset="1" style="stop-color:rgb(226,81,76);stop-opacity:1"/></linearGradient>
        <linearGradient id="_Linear9" x1="0" y1="0" x2="1" y2="0" gradientUnits="userSpaceOnUse" gradientTransform="matrix(207.495,502.602,-502.602,207.495,200.496,40.9996)"><stop offset="0" style="stop-color:rgb(154,225,200);stop-opacity:1"/><stop offset="1" style="stop-color:rgb(226,81,76);stop-opacity:1"/></linearGradient>
        <linearGradient id="_Linear10" x1="0" y1="0" x2="1" y2="0" gradientUnits="userSpaceOnUse" gradientTransform="matrix(1119.16,0,0,404.836,666.65,294.028)"><stop offset="0" style="stop-color:rgb(233,102,96);stop-opacity:1"/><stop offset="0.57" style="stop-color:rgb(106,175,129);stop-opacity:1"/><stop offset="1" style="stop-color:rgb(49,208,144);stop-opacity:1"/></linearGradient>
        <linearGradient id="_Linear11" x1="0" y1="0" x2="1" y2="0" gradientUnits="userSpaceOnUse" gradientTransform="matrix(1119.16,0,0,404.836,666.65,294.028)"><stop offset="0" style="stop-color:rgb(233,102,96);stop-opacity:1"/><stop offset="0.57" style="stop-color:rgb(106,175,129);stop-opacity:1"/><stop offset="1" style="stop-color:rgb(49,208,144);stop-opacity:1"/></linearGradient>
        <linearGradient id="_Linear12" x1="0" y1="0" x2="1" y2="0" gradientUnits="userSpaceOnUse" gradientTransform="matrix(1119.16,0,0,404.836,666.65,294.028)"><stop offset="0" style="stop-color:rgb(233,102,96);stop-opacity:1"/><stop offset="0.57" style="stop-color:rgb(106,175,129);stop-opacity:1"/><stop offset="1" style="stop-color:rgb(49,208,144);stop-opacity:1"/></linearGradient>
        <linearGradient id="_Linear13" x1="0" y1="0" x2="1" y2="0" gradientUnits="userSpaceOnUse" gradientTransform="matrix(1119.16,0,0,404.836,666.65,294.028)"><stop offset="0" style="stop-color:rgb(233,102,96);stop-opacity:1"/><stop offset="0.57" style="stop-color:rgb(106,175,129);stop-opacity:1"/><stop offset="1" style="stop-color:rgb(49,208,144);stop-opacity:1"/></linearGradient>
        <linearGradient id="_Linear14" x1="0" y1="0" x2="1" y2="0" gradientUnits="userSpaceOnUse" gradientTransform="matrix(1119.16,0,0,404.836,666.65,294.028)"><stop offset="0" style="stop-color:rgb(233,102,96);stop-opacity:1"/><stop offset="0.57" style="stop-color:rgb(106,175,129);stop-opacity:1"/><stop offset="1" style="stop-color:rgb(49,208,144);stop-opacity:1"/></linearGradient>
        <linearGradient id="_Linear15" x1="0" y1="0" x2="1" y2="0" gradientUnits="userSpaceOnUse" gradientTransform="matrix(1119.16,0,0,404.836,666.65,294.028)"><stop offset="0" style="stop-color:rgb(233,102,96);stop-opacity:1"/><stop offset="0.57" style="stop-color:rgb(106,175,129);stop-opacity:1"/><stop offset="1" style="stop-color:rgb(49,208,144);stop-opacity:1"/></linearGradient>
        <linearGradient id="_Linear16" x1="0" y1="0" x2="1" y2="0" gradientUnits="userSpaceOnUse" gradientTransform="matrix(1119.16,0,0,404.836,666.65,294.028)"><stop offset="0" style="stop-color:rgb(233,102,96);stop-opacity:1"/><stop offset="0.57" style="stop-color:rgb(106,175,129);stop-opacity:1"/><stop offset="1" style="stop-color:rgb(49,208,144);stop-opacity:1"/></linearGradient>
        <linearGradient id="_Linear17" x1="0" y1="0" x2="1" y2="0" gradientUnits="userSpaceOnUse" gradientTransform="matrix(1119.16,0,0,404.836,666.65,294.028)"><stop offset="0" style="stop-color:rgb(233,102,96);stop-opacity:1"/><stop offset="0.57" style="stop-color:rgb(106,175,129);stop-opacity:1"/><stop offset="1" style="stop-color:rgb(49,208,144);stop-opacity:1"/></linearGradient>
    </defs>
</svg>
