<?xml version="1.0" encoding="UTF-8" standalone="no"?>
<!DOCTYPE svg PUBLIC "-//W3C//DTD SVG 1.1//EN" "http://www.w3.org/Graphics/SVG/1.1/DTD/svg11.dtd">
<svg width="100%" height="100%" viewBox="0 0 1080 1080" version="1.1" xmlns="http://www.w3.org/2000/svg" xmlns:xlink="http://www.w3.org/1999/xlink" xml:space="preserve" xmlns:serif="http://www.serif.com/" style="fill-rule:evenodd;clip-rule:evenodd;stroke-linejoin:round;stroke-miterlimit:2;">
    <g transform="matrix(-0.445141,0.915226,-0.915226,-0.445141,1176.71,280.576)">
        <circle cx="503.233" cy="450.923" r="460.931" style="fill:url(#_Linear1);"/>
    </g>
    <g transform="matrix(1.10431,0,0,1.10431,665.528,-42.2865)">
        <circle cx="-113.671" cy="527.67" r="400.222" style="fill:rgb(12,21,17);"/>
    </g>
    <g transform="matrix(4.70542,0.245143,-0.245143,4.70542,-1798.34,-369.013)">
        <g id="Layer1">
            <path d="M489.585,213.015C488.724,213.015 487.96,212.553 487.295,211.629C486.63,210.704 486.072,209.584 485.622,208.267C485.173,206.95 484.82,205.744 484.563,204.648C484.252,203.099 483.89,200.855 483.475,197.916C483.061,194.977 482.64,191.7 482.212,188.085C481.784,184.469 481.386,180.846 481.017,177.214C480.649,173.583 480.351,170.274 480.122,167.289C479.893,164.303 479.778,162.017 479.778,160.43C479.778,156.106 480.182,152.254 480.989,148.873C481.796,145.492 482.927,142.548 484.383,140.039C485.839,137.531 487.543,135.423 489.495,133.717C492.445,131.181 495.999,129.473 500.157,128.592C504.315,127.712 508.749,127.271 513.461,127.271C516.231,127.271 518.968,127.419 521.673,127.713C524.377,128.008 526.816,128.425 528.989,128.965C531.162,129.504 532.899,130.133 534.199,130.85C535.5,131.567 536.15,132.332 536.15,133.144C536.15,133.804 535.902,134.278 535.406,134.567C534.91,134.856 534.233,135.042 533.377,135.124C531.589,135.194 529.003,135.001 525.619,134.543C522.236,134.085 518.499,133.856 514.41,133.856C509.965,133.856 506.192,134.334 503.089,135.291C499.987,136.248 497.451,137.7 495.483,139.647C493.934,141.13 492.721,142.908 491.843,144.98C490.965,147.052 490.339,149.458 489.966,152.198C489.592,154.938 489.405,158.064 489.405,161.575C489.405,163.02 489.468,164.306 489.594,165.432C489.719,166.558 489.925,167.523 490.211,168.327C490.497,169.132 490.909,169.736 491.446,170.139C491.983,170.543 492.661,170.744 493.479,170.744C494.891,170.744 496.756,170.66 499.073,170.491C501.391,170.322 503.839,170.119 506.418,169.882C508.998,169.644 511.443,169.452 513.755,169.305C516.067,169.158 517.946,169.103 519.391,169.141C521.463,169.212 523.046,169.387 524.139,169.665C525.232,169.943 525.779,170.543 525.779,171.464C525.779,171.873 525.664,172.273 525.435,172.662C525.206,173.052 524.857,173.389 524.388,173.673C523.718,174.071 522.17,174.312 519.747,174.397C517.323,174.481 513.9,174.673 509.477,174.973C505.055,175.273 499.501,175.949 492.816,177.002C491.933,177.116 491.28,177.492 490.857,178.13C490.435,178.768 490.223,179.663 490.223,180.813C490.223,181.435 490.315,182.656 490.497,184.478C490.68,186.299 490.908,188.41 491.18,190.812C491.453,193.214 491.712,195.642 491.957,198.096C492.203,200.55 492.407,202.753 492.571,204.705C492.734,206.657 492.8,208.08 492.767,208.975C492.603,210.627 492.252,211.713 491.712,212.234C491.172,212.755 490.463,213.015 489.585,213.015Z" style="fill:white;fill-rule:nonzero;"/>
        </g>
    </g>
    <defs>
        <linearGradient id="_Linear1" x1="0" y1="0" x2="1" y2="0" gradientUnits="userSpaceOnUse" gradientTransform="matrix(921.861,0,0,921.861,42.3023,450.923)"><stop offset="0" style="stop-color:rgb(141,189,167);stop-opacity:1"/><stop offset="1" style="stop-color:rgb(194,87,81);stop-opacity:1"/></linearGradient>
    </defs>
</svg>
