<?xml version="1.0" encoding="UTF-8" standalone="no"?><!DOCTYPE svg PUBLIC "-//W3C//DTD SVG 1.1//EN" "http://www.w3.org/Graphics/SVG/1.1/DTD/svg11.dtd"><svg width="100%" height="100%" viewBox="0 0 895 295" version="1.1" xmlns="http://www.w3.org/2000/svg" xmlns:xlink="http://www.w3.org/1999/xlink" xml:space="preserve" xmlns:serif="http://www.serif.com/" style="fill-rule:evenodd;clip-rule:evenodd;stroke-linecap:round;stroke-linejoin:round;stroke-miterlimit:1.5;"><g><clipPath id="_clip1"><circle cx="150.14" cy="147.5" r="147.5"/></clipPath><g clip-path="url(#_clip1)"><rect x="-12.916" y="-12.616" width="326.113" height="323.172" style="fill:#383e4d;"/><g><path d="M202.276,-15.556l-244.178,207.475l8.663,7.361l244.178,-207.476l-8.663,-7.36Z" style="fill:url(#_Linear2);"/><path d="M252.225,26.871l-244.178,207.476l8.663,7.361l244.178,-207.476l-8.663,-7.361Z" style="fill:url(#_Linear3);"/><path d="M298.025,64.643l-244.178,207.475l8.663,7.361l244.178,-207.476l-8.663,-7.36Z" style="fill:url(#_Linear4);"/><path d="M344.426,102.095l-244.178,207.476l8.663,7.361l244.178,-207.476l-8.663,-7.361Z" style="fill:url(#_Linear5);"/></g><g><circle cx="128.672" cy="54.395" r="36.259" style="fill:url(#_Linear6);stroke:#383e4d;stroke-width:20px;"/><circle cx="97.53" cy="164.058" r="29.769" style="fill:url(#_Linear7);stroke:#383e4d;stroke-width:20px;"/><circle cx="203.996" cy="149.388" r="31.668" style="fill:url(#_Linear8);stroke:#383e4d;stroke-width:20px;"/><circle cx="185.506" cy="243.888" r="34.374" style="fill:url(#_Linear9);stroke:#383e4d;stroke-width:20px;"/></g></g></g><g><path d="M374.509,99.567l-1.797,0c-7.191,0 -12.775,2.456 -16.752,7.368c-3.977,4.912 -5.965,13.63 -5.965,26.153c-0,3.994 0.381,6.774 1.144,8.339c0.763,1.566 1.144,2.456 1.144,2.672c-5.884,0 -10.269,-1.214 -13.156,-3.643c-2.887,-2.429 -4.331,-6.451 -4.331,-12.064c-0,-7.665 1.907,-14.655 5.72,-20.971c3.813,-6.315 9.887,-11.416 18.222,-15.303c8.335,-3.886 18.931,-5.829 31.787,-5.829c3.923,-0 9.316,0.486 16.18,1.457c0.653,0.108 3.241,0.432 7.763,0.972c4.521,0.54 9.124,0.809 13.809,0.809c8.172,0 16.071,-1.025 23.698,-3.076c-1.308,7.125 -3.541,13.089 -6.701,17.893c-3.16,4.805 -7.681,7.207 -13.565,7.207c-3.922,-0 -7.408,-0.405 -10.459,-1.215c-3.051,-0.81 -6.701,-2.024 -10.95,-3.644c-4.358,-1.619 -8.662,-3.022 -12.911,-4.21l-7.027,32.387l20.592,0l-2.615,11.983l-20.592,0l-13.238,60.888l-23.534,-0l23.534,-108.173Zm50.01,109.144c-5.23,0 -9.452,-1.619 -12.666,-4.858c-3.214,-3.238 -4.821,-8.097 -4.821,-14.574c-0,-2.699 0.435,-6.207 1.307,-10.526l11.113,-51.981l23.534,0l-11.767,55.058c-0.436,1.619 -0.654,3.347 -0.654,5.182c0,2.159 0.518,3.698 1.553,4.615c1.035,0.918 2.751,1.377 5.148,1.377c3.16,-0 6.101,-1.323 8.825,-3.968c2.724,-2.645 4.685,-6.072 5.884,-10.283l6.864,0c-4.032,11.66 -9.207,19.567 -15.526,23.724c-6.319,4.156 -12.584,6.234 -18.794,6.234Z" style="fill:url(#_Linear10);fill-rule:nonzero;"/><path d="M471.586,208.711c-6.21,0 -11.385,-2.105 -15.526,-6.315c-4.14,-4.21 -6.21,-10.796 -6.21,-19.756c0,-7.989 1.607,-16.383 4.821,-25.181c3.214,-8.798 8.008,-16.247 14.382,-22.347c6.374,-6.1 13.973,-9.149 22.798,-9.149c4.467,-0 7.79,0.755 9.969,2.267c2.18,1.511 3.269,3.508 3.269,5.991l0,0.648l8.008,-37.245l24.188,-3.239l-18.795,87.445c-0.436,1.619 -0.653,3.347 -0.653,5.182c-0,2.159 0.517,3.698 1.552,4.615c1.035,0.918 2.751,1.377 5.148,1.377c3.051,-0 5.693,-1.296 7.926,-3.887c2.234,-2.591 4.004,-6.045 5.312,-10.364l6.864,0c-6.646,19.325 -17.596,28.987 -32.849,28.987c-4.467,-0 -8.09,-1.188 -10.868,-3.563c-2.779,-2.375 -4.495,-5.83 -5.148,-10.364c-2.833,4.319 -6.238,7.881 -10.215,10.688c-3.976,2.807 -8.634,4.21 -13.973,4.21Zm10.623,-15.707c2.615,-0 5.257,-1.188 7.926,-3.563c2.67,-2.375 4.495,-5.668 5.475,-9.878l0,-0.81l8.008,-37.083c-0.98,-3.778 -3.214,-5.667 -6.7,-5.667c-4.359,-0 -8.281,2.51 -11.767,7.53c-3.487,5.02 -6.211,11.065 -8.172,18.136c-1.961,7.071 -2.941,13.306 -2.941,18.704c-0,5.398 0.789,8.852 2.369,10.364c1.58,1.511 3.514,2.267 5.802,2.267Z" style="fill:url(#_Linear11);fill-rule:nonzero;"/><path d="M557.386,208.711c-6.21,0 -11.385,-2.105 -15.525,-6.315c-4.141,-4.21 -6.211,-10.796 -6.211,-19.756c0,-7.989 1.607,-16.383 4.821,-25.181c3.215,-8.798 8.008,-16.247 14.382,-22.347c6.374,-6.1 13.973,-9.149 22.799,-9.149c4.467,-0 7.79,0.755 9.969,2.267c2.179,1.511 3.268,3.508 3.268,5.991l0,0.648l8.008,-37.245l24.188,-3.239l-18.795,87.445c-0.435,1.619 -0.653,3.347 -0.653,5.182c-0,2.159 0.517,3.698 1.552,4.615c1.035,0.918 2.751,1.377 5.148,1.377c3.051,-0 5.693,-1.296 7.927,-3.887c2.233,-2.591 4.004,-6.045 5.311,-10.364l6.864,0c-6.646,19.325 -17.596,28.987 -32.849,28.987c-4.467,-0 -8.09,-1.188 -10.868,-3.563c-2.778,-2.375 -4.494,-5.83 -5.148,-10.364c-2.833,4.319 -6.238,7.881 -10.214,10.688c-3.977,2.807 -8.635,4.21 -13.974,4.21Zm10.623,-15.707c2.615,-0 5.257,-1.188 7.927,-3.563c2.669,-2.375 4.494,-5.668 5.474,-9.878l0,-0.81l8.008,-37.083c-0.98,-3.778 -3.214,-5.667 -6.7,-5.667c-4.358,-0 -8.281,2.51 -11.767,7.53c-3.487,5.02 -6.21,11.065 -8.171,18.136c-1.962,7.071 -2.942,13.306 -2.942,18.704c-0,5.398 0.79,8.852 2.37,10.364c1.579,1.511 3.513,2.267 5.801,2.267Z" style="fill:url(#_Linear12);fill-rule:nonzero;"/><path d="M639.428,208.711c-5.23,0 -9.452,-1.646 -12.666,-4.939c-3.214,-3.292 -4.821,-8.231 -4.821,-14.817c-0,-2.699 0.436,-6.207 1.307,-10.526l17.487,-81.129l24.188,-3.238l-18.795,87.444c-0.435,1.62 -0.653,3.185 -0.653,4.696c-0,4.319 2.233,6.478 6.7,6.478c1.961,-0 3.705,-0.324 5.23,-0.972c-0.436,5.398 -2.37,9.581 -5.802,12.55c-3.432,2.969 -7.49,4.453 -12.175,4.453Z" style="fill:url(#_Linear13);fill-rule:nonzero;"/><path d="M675.382,208.387c-3.595,0 -6.646,-1.241 -9.152,-3.724c-2.506,-2.483 -3.759,-5.506 -3.759,-9.068c0,-3.563 1.253,-6.613 3.759,-9.15c2.506,-2.537 5.557,-3.805 9.152,-3.805c3.596,-0 6.673,1.268 9.234,3.805c2.56,2.537 3.84,5.587 3.84,9.15c0,3.562 -1.28,6.585 -3.84,9.068c-2.561,2.483 -5.638,3.724 -9.234,3.724Z" style="fill:url(#_Linear14);fill-rule:nonzero;"/><path d="M719.998,208.711c-6.21,0 -11.385,-2.105 -15.526,-6.315c-4.14,-4.21 -6.21,-10.796 -6.21,-19.756c0,-7.989 1.607,-16.383 4.821,-25.181c3.214,-8.798 8.008,-16.247 14.382,-22.347c6.374,-6.1 13.973,-9.149 22.798,-9.149c4.468,-0 7.791,0.755 9.97,2.267c2.179,1.511 3.268,3.508 3.268,5.991l0,1.134l1.798,-8.583l23.534,0l-11.767,55.058c-0.436,1.619 -0.654,3.347 -0.654,5.182c0,4.642 2.234,6.963 6.701,6.963c3.05,0 5.692,-1.403 7.926,-4.21c2.234,-2.807 4.004,-6.477 5.311,-11.012l6.864,0c-4.031,11.66 -9.015,19.567 -14.953,23.724c-5.938,4.156 -11.903,6.234 -17.896,6.234c-4.576,0 -8.253,-1.268 -11.031,-3.805c-2.779,-2.537 -4.44,-6.235 -4.985,-11.093c-3.159,4.426 -6.673,8.016 -10.541,10.769c-3.868,2.753 -8.471,4.129 -13.81,4.129Zm10.623,-15.707c2.724,-0 5.421,-1.269 8.09,-3.806c2.669,-2.537 4.494,-6.018 5.475,-10.445l7.844,-36.597c0,-1.403 -0.544,-2.78 -1.634,-4.129c-1.089,-1.35 -2.778,-2.024 -5.066,-2.024c-4.358,-0 -8.281,2.51 -11.767,7.53c-3.487,5.02 -6.21,11.065 -8.172,18.136c-1.961,7.071 -2.941,13.306 -2.941,18.704c-0,5.398 0.79,8.852 2.369,10.364c1.58,1.511 3.514,2.267 5.802,2.267Z" style="fill:url(#_Linear15);fill-rule:nonzero;"/><path d="M797.464,126.772l23.533,0l-2.124,10.04c3.704,-3.238 7.055,-5.721 10.051,-7.449c2.996,-1.727 6.237,-2.591 9.724,-2.591c3.486,0 6.237,1.188 8.253,3.563c2.016,2.375 3.023,5.236 3.023,8.582c0,3.131 -1.035,5.884 -3.105,8.259c-2.07,2.375 -4.957,3.563 -8.662,3.563c-2.397,-0 -4.004,-0.567 -4.821,-1.701c-0.817,-1.133 -1.443,-2.779 -1.879,-4.939c-0.327,-1.403 -0.654,-2.429 -0.981,-3.076c-0.327,-0.648 -0.926,-0.972 -1.797,-0.972c-2.288,0 -4.222,0.459 -5.802,1.376c-1.58,0.918 -3.623,2.51 -6.129,4.778l-13.074,61.535l-23.534,-0l17.324,-80.968Z" style="fill:url(#_Linear16);fill-rule:nonzero;"/><path d="M863.162,208.711c-5.556,0 -9.669,-1.673 -12.339,-5.02c-2.669,-3.346 -4.004,-7.773 -4.004,-13.278c0,-2.807 0.327,-5.668 0.981,-8.583l10.459,-48.58l-5.393,-0l1.307,-6.478l5.394,0l4.903,-22.347l24.187,-3.238c-0.981,4.102 -1.525,6.531 -1.634,7.287c-0.763,3.023 -2.07,9.122 -3.923,18.298l9.806,0l-1.307,6.478l-9.806,-0l-10.459,48.58c-0.545,2.375 -0.818,4.264 -0.818,5.668c0,3.886 1.907,5.829 5.72,5.829c1.962,0 3.378,-0.161 4.25,-0.485c-2.179,6.261 -4.74,10.471 -7.682,12.631c-2.941,2.159 -6.155,3.238 -9.642,3.238Z" style="fill:url(#_Linear17);fill-rule:nonzero;"/><path d="M382.117,98.996l-1.786,-0c-7.142,-0 -12.688,2.462 -16.637,7.385c-3.95,4.924 -5.925,13.662 -5.925,26.215c0,4.004 0.379,6.79 1.136,8.359c0.758,1.569 1.136,2.462 1.136,2.678c-5.843,0 -10.199,-1.217 -13.066,-3.652c-2.868,-2.435 -4.302,-6.466 -4.302,-12.093c0,-7.683 1.894,-14.689 5.682,-21.02c3.787,-6.33 9.82,-11.443 18.098,-15.339c8.278,-3.896 18.802,-5.843 31.571,-5.843c3.896,-0 9.252,0.487 16.069,1.461c0.65,0.108 3.22,0.432 7.711,0.973c4.49,0.542 9.062,0.812 13.716,0.812c8.115,0 15.961,-1.028 23.536,-3.084c-1.299,7.142 -3.517,13.121 -6.655,17.936c-3.139,4.816 -7.629,7.223 -13.473,7.223c-3.895,0 -7.358,-0.405 -10.388,-1.217c-3.03,-0.812 -6.655,-2.029 -10.876,-3.652c-4.328,-1.623 -8.602,-3.03 -12.823,-4.22l-6.979,32.463l20.452,0l-2.597,12.012l-20.452,-0l-13.148,61.031l-23.374,0l23.374,-108.428Zm49.669,109.402c-5.194,0 -9.387,-1.623 -12.579,-4.869c-3.193,-3.247 -4.789,-8.116 -4.789,-14.609c0,-2.705 0.433,-6.222 1.299,-10.551l11.037,-52.104l23.374,0l-11.687,55.189c-0.433,1.623 -0.649,3.354 -0.649,5.194c-0,2.164 0.514,3.706 1.542,4.626c1.028,0.92 2.732,1.379 5.113,1.379c3.138,0 6.06,-1.325 8.765,-3.976c2.706,-2.652 4.653,-6.087 5.844,-10.308l6.817,0c-4.004,11.687 -9.144,19.614 -15.42,23.78c-6.277,4.166 -12.499,6.249 -18.667,6.249Z" style="fill:#e6e6e6;fill-rule:nonzero;"/><path d="M476.911,208.398c-6.168,0 -11.308,-2.11 -15.421,-6.33c-4.112,-4.22 -6.168,-10.821 -6.168,-19.803c0,-8.008 1.596,-16.421 4.789,-25.24c3.192,-8.82 7.953,-16.286 14.284,-22.4c6.33,-6.114 13.878,-9.171 22.643,-9.171c4.437,-0 7.737,0.757 9.902,2.272c2.164,1.515 3.246,3.517 3.246,6.006l-0,0.649l7.954,-37.333l24.023,-3.246l-18.667,87.652c-0.433,1.623 -0.649,3.354 -0.649,5.194c-0,2.164 0.514,3.706 1.542,4.626c1.028,0.92 2.732,1.379 5.113,1.379c3.03,0 5.654,-1.298 7.872,-3.895c2.219,-2.597 3.977,-6.06 5.276,-10.389l6.817,0c-6.601,19.37 -17.476,29.055 -32.626,29.055c-4.437,0 -8.035,-1.19 -10.794,-3.571c-2.76,-2.38 -4.464,-5.843 -5.113,-10.388c-2.814,4.329 -6.195,7.9 -10.145,10.713c-3.95,2.814 -8.576,4.22 -13.878,4.22Zm10.55,-15.745c2.597,0 5.222,-1.19 7.873,-3.571c2.651,-2.38 4.464,-5.681 5.437,-9.901l0,-0.812l7.954,-37.17c-0.974,-3.788 -3.192,-5.682 -6.655,-5.682c-4.328,0 -8.224,2.516 -11.687,7.548c-3.463,5.032 -6.168,11.092 -8.116,18.18c-1.948,7.088 -2.922,13.337 -2.922,18.748c0,5.41 0.785,8.873 2.354,10.388c1.569,1.515 3.49,2.272 5.762,2.272Z" style="fill:#e6e6e6;fill-rule:nonzero;"/><path d="M560.505,208.398c-6.168,0 -11.309,-2.11 -15.421,-6.33c-4.112,-4.22 -6.168,-10.821 -6.168,-19.803c0,-8.008 1.596,-16.421 4.789,-25.24c3.192,-8.82 7.953,-16.286 14.284,-22.4c6.33,-6.114 13.878,-9.171 22.643,-9.171c4.437,-0 7.737,0.757 9.902,2.272c2.164,1.515 3.246,3.517 3.246,6.006l-0,0.649l7.954,-37.333l24.023,-3.246l-18.667,87.652c-0.433,1.623 -0.649,3.354 -0.649,5.194c-0,2.164 0.514,3.706 1.542,4.626c1.028,0.92 2.732,1.379 5.113,1.379c3.03,0 5.654,-1.298 7.872,-3.895c2.219,-2.597 3.977,-6.06 5.276,-10.389l6.817,0c-6.601,19.37 -17.476,29.055 -32.626,29.055c-4.437,0 -8.035,-1.19 -10.794,-3.571c-2.76,-2.38 -4.464,-5.843 -5.113,-10.388c-2.814,4.329 -6.195,7.9 -10.145,10.713c-3.95,2.814 -8.576,4.22 -13.878,4.22Zm10.55,-15.745c2.597,0 5.222,-1.19 7.873,-3.571c2.651,-2.38 4.464,-5.681 5.437,-9.901l0,-0.812l7.954,-37.17c-0.974,-3.788 -3.192,-5.682 -6.655,-5.682c-4.328,0 -8.224,2.516 -11.687,7.548c-3.463,5.032 -6.168,11.092 -8.116,18.18c-1.948,7.088 -2.922,13.337 -2.922,18.748c0,5.41 0.785,8.873 2.354,10.388c1.569,1.515 3.49,2.272 5.762,2.272Z" style="fill:#e6e6e6;fill-rule:nonzero;"/><path d="M640.365,208.398c-5.194,0 -9.387,-1.65 -12.579,-4.95c-3.193,-3.301 -4.789,-8.252 -4.789,-14.852c0,-2.706 0.433,-6.223 1.299,-10.551l17.368,-81.322l24.023,-3.246l-18.667,87.652c-0.433,1.623 -0.649,3.192 -0.649,4.707c0,4.329 2.218,6.493 6.655,6.493c1.948,-0 3.679,-0.325 5.194,-0.974c-0.433,5.411 -2.353,9.604 -5.762,12.58c-3.409,2.975 -7.44,4.463 -12.093,4.463Z" style="fill:#e6e6e6;fill-rule:nonzero;"/><path d="M674.452,208.074c-3.571,-0 -6.601,-1.245 -9.09,-3.734c-2.489,-2.488 -3.733,-5.518 -3.733,-9.089c-0,-3.571 1.244,-6.628 3.733,-9.171c2.489,-2.543 5.519,-3.815 9.09,-3.815c3.571,0 6.628,1.272 9.171,3.815c2.543,2.543 3.815,5.6 3.815,9.171c-0,3.571 -1.272,6.601 -3.815,9.089c-2.543,2.489 -5.6,3.734 -9.171,3.734Z" style="fill:#e6e6e6;fill-rule:nonzero;"/><path d="M717.142,208.398c-6.168,0 -11.308,-2.11 -15.42,-6.33c-4.112,-4.22 -6.168,-10.821 -6.168,-19.803c-0,-8.008 1.596,-16.421 4.788,-25.24c3.192,-8.82 7.954,-16.286 14.284,-22.4c6.33,-6.114 13.878,-9.171 22.643,-9.171c4.437,-0 7.738,0.757 9.902,2.272c2.164,1.515 3.246,3.517 3.246,6.006l0,1.136l1.786,-8.603l23.373,0l-11.686,55.189c-0.433,1.623 -0.65,3.354 -0.65,5.194c0,4.653 2.219,6.979 6.655,6.979c3.03,0 5.654,-1.406 7.873,-4.22c2.218,-2.813 3.977,-6.493 5.275,-11.038l6.817,0c-4.003,11.687 -8.954,19.614 -14.852,23.78c-5.897,4.166 -11.822,6.249 -17.774,6.249c-4.544,0 -8.197,-1.271 -10.956,-3.814c-2.759,-2.543 -4.41,-6.249 -4.951,-11.119c-3.138,4.437 -6.628,8.035 -10.469,10.794c-3.842,2.76 -8.414,4.139 -13.716,4.139Zm10.551,-15.745c2.705,0 5.383,-1.271 8.034,-3.814c2.652,-2.543 4.464,-6.033 5.438,-10.47l7.791,-36.683c0,-1.407 -0.541,-2.787 -1.623,-4.14c-1.082,-1.352 -2.759,-2.029 -5.032,-2.029c-4.328,0 -8.224,2.516 -11.687,7.548c-3.463,5.032 -6.168,11.092 -8.116,18.18c-1.947,7.088 -2.921,13.337 -2.921,18.748c-0,5.41 0.784,8.873 2.353,10.388c1.569,1.515 3.49,2.272 5.763,2.272Z" style="fill:#e6e6e6;fill-rule:nonzero;"/><path d="M792.458,126.265l23.373,0l-2.11,10.064c3.679,-3.246 7.007,-5.735 9.983,-7.467c2.976,-1.731 6.195,-2.597 9.658,-2.597c3.463,0 6.195,1.191 8.197,3.571c2.002,2.381 3.003,5.249 3.003,8.603c-0,3.138 -1.028,5.898 -3.084,8.278c-2.056,2.381 -4.924,3.571 -8.603,3.571c-2.381,0 -3.977,-0.568 -4.789,-1.704c-0.811,-1.136 -1.433,-2.786 -1.866,-4.951c-0.325,-1.406 -0.649,-2.434 -0.974,-3.084c-0.325,-0.649 -0.92,-0.974 -1.786,-0.974c-2.272,0 -4.193,0.46 -5.762,1.38c-1.569,0.92 -3.598,2.516 -6.087,4.788l-12.985,61.681l-23.374,0l17.206,-81.159Z" style="fill:#e6e6e6;fill-rule:nonzero;"/><path d="M856.086,208.398c-5.518,0 -9.603,-1.677 -12.255,-5.032c-2.651,-3.354 -3.976,-7.791 -3.976,-13.31c-0,-2.813 0.324,-5.681 0.973,-8.602l10.389,-48.696l-5.357,-0l1.299,-6.493l5.356,0l4.87,-22.4l24.023,-3.246c-0.974,4.112 -1.515,6.547 -1.623,7.304c-0.758,3.03 -2.056,9.144 -3.896,18.342l9.739,0l-1.298,6.493l-9.739,-0l-10.389,48.696c-0.541,2.38 -0.811,4.274 -0.811,5.681c-0,3.895 1.893,5.843 5.681,5.843c1.948,0 3.354,-0.162 4.22,-0.487c-2.164,6.276 -4.707,10.497 -7.629,12.661c-2.922,2.164 -6.114,3.246 -9.577,3.246Z" style="fill:#e6e6e6;fill-rule:nonzero;"/></g><defs><linearGradient id="_Linear2" x1="0" y1="0" x2="1" y2="-0.0462856" gradientUnits="userSpaceOnUse" gradientTransform="matrix(131.057,-111.358,457.171,388.453,503.875,447.041)"><stop offset="0" style="stop-color:#e76057;stop-opacity:1"/><stop offset="0.15" style="stop-color:#be9d8b;stop-opacity:1"/><stop offset="0.33" style="stop-color:#9dcdb5;stop-opacity:1"/><stop offset="0.99" style="stop-color:#92dec4;stop-opacity:1"/><stop offset="1" style="stop-color:#9ce1c9;stop-opacity:1"/><stop offset="1" style="stop-color:#b8e9d8;stop-opacity:1"/><stop offset="1" style="stop-color:#dbf4eb;stop-opacity:1"/></linearGradient><linearGradient id="_Linear3" x1="0" y1="0" x2="1" y2="-0.0462856" gradientUnits="userSpaceOnUse" gradientTransform="matrix(131.057,-111.358,457.171,388.453,553.825,489.468)"><stop offset="0" style="stop-color:#e76057;stop-opacity:1"/><stop offset="0.15" style="stop-color:#be9d8b;stop-opacity:1"/><stop offset="0.33" style="stop-color:#9dcdb5;stop-opacity:1"/><stop offset="0.99" style="stop-color:#92dec4;stop-opacity:1"/><stop offset="1" style="stop-color:#9ce1c9;stop-opacity:1"/><stop offset="1" style="stop-color:#b8e9d8;stop-opacity:1"/><stop offset="1" style="stop-color:#dbf4eb;stop-opacity:1"/></linearGradient><linearGradient id="_Linear4" x1="0" y1="0" x2="1" y2="-0.0462856" gradientUnits="userSpaceOnUse" gradientTransform="matrix(131.057,-111.358,457.171,388.453,599.624,527.239)"><stop offset="0" style="stop-color:#e76057;stop-opacity:1"/><stop offset="0.15" style="stop-color:#be9d8b;stop-opacity:1"/><stop offset="0.33" style="stop-color:#9dcdb5;stop-opacity:1"/><stop offset="0.99" style="stop-color:#92dec4;stop-opacity:1"/><stop offset="1" style="stop-color:#9ce1c9;stop-opacity:1"/><stop offset="1" style="stop-color:#b8e9d8;stop-opacity:1"/><stop offset="1" style="stop-color:#dbf4eb;stop-opacity:1"/></linearGradient><linearGradient id="_Linear5" x1="0" y1="0" x2="1" y2="-0.0462856" gradientUnits="userSpaceOnUse" gradientTransform="matrix(131.057,-111.358,457.171,388.453,646.025,564.692)"><stop offset="0" style="stop-color:#e76057;stop-opacity:1"/><stop offset="0.15" style="stop-color:#be9d8b;stop-opacity:1"/><stop offset="0.33" style="stop-color:#9dcdb5;stop-opacity:1"/><stop offset="0.99" style="stop-color:#92dec4;stop-opacity:1"/><stop offset="1" style="stop-color:#9ce1c9;stop-opacity:1"/><stop offset="1" style="stop-color:#b8e9d8;stop-opacity:1"/><stop offset="1" style="stop-color:#dbf4eb;stop-opacity:1"/></linearGradient><linearGradient id="_Linear6" x1="0" y1="0" x2="1" y2="0" gradientUnits="userSpaceOnUse" gradientTransform="matrix(103.748,251.301,-251.301,103.748,108.717,25.3502)"><stop offset="0" style="stop-color:#9ae1c8;stop-opacity:1"/><stop offset="1" style="stop-color:#e2514c;stop-opacity:1"/></linearGradient><linearGradient id="_Linear7" x1="0" y1="0" x2="1" y2="0" gradientUnits="userSpaceOnUse" gradientTransform="matrix(103.748,251.301,-251.301,103.748,100.248,20.4998)"><stop offset="0" style="stop-color:#9ae1c8;stop-opacity:1"/><stop offset="1" style="stop-color:#e2514c;stop-opacity:1"/></linearGradient><linearGradient id="_Linear8" x1="0" y1="0" x2="1" y2="0" gradientUnits="userSpaceOnUse" gradientTransform="matrix(103.748,251.301,-251.301,103.748,100.248,20.4998)"><stop offset="0" style="stop-color:#9ae1c8;stop-opacity:1"/><stop offset="1" style="stop-color:#e2514c;stop-opacity:1"/></linearGradient><linearGradient id="_Linear9" x1="0" y1="0" x2="1" y2="0" gradientUnits="userSpaceOnUse" gradientTransform="matrix(103.748,251.301,-251.301,103.748,100.248,20.4998)"><stop offset="0" style="stop-color:#9ae1c8;stop-opacity:1"/><stop offset="1" style="stop-color:#e2514c;stop-opacity:1"/></linearGradient><linearGradient id="_Linear10" x1="0" y1="0" x2="1" y2="0" gradientUnits="userSpaceOnUse" gradientTransform="matrix(559.581,0,0,202.418,333.325,147.014)"><stop offset="0" style="stop-color:#e96660;stop-opacity:1"/><stop offset="0.57" style="stop-color:#6aaf81;stop-opacity:1"/><stop offset="1" style="stop-color:#31d090;stop-opacity:1"/></linearGradient><linearGradient id="_Linear11" x1="0" y1="0" x2="1" y2="0" gradientUnits="userSpaceOnUse" gradientTransform="matrix(559.581,0,0,202.418,333.325,147.014)"><stop offset="0" style="stop-color:#e96660;stop-opacity:1"/><stop offset="0.57" style="stop-color:#6aaf81;stop-opacity:1"/><stop offset="1" style="stop-color:#31d090;stop-opacity:1"/></linearGradient><linearGradient id="_Linear12" x1="0" y1="0" x2="1" y2="0" gradientUnits="userSpaceOnUse" gradientTransform="matrix(559.581,0,0,202.418,333.325,147.014)"><stop offset="0" style="stop-color:#e96660;stop-opacity:1"/><stop offset="0.57" style="stop-color:#6aaf81;stop-opacity:1"/><stop offset="1" style="stop-color:#31d090;stop-opacity:1"/></linearGradient><linearGradient id="_Linear13" x1="0" y1="0" x2="1" y2="0" gradientUnits="userSpaceOnUse" gradientTransform="matrix(559.581,0,0,202.418,333.325,147.014)"><stop offset="0" style="stop-color:#e96660;stop-opacity:1"/><stop offset="0.57" style="stop-color:#6aaf81;stop-opacity:1"/><stop offset="1" style="stop-color:#31d090;stop-opacity:1"/></linearGradient><linearGradient id="_Linear14" x1="0" y1="0" x2="1" y2="0" gradientUnits="userSpaceOnUse" gradientTransform="matrix(559.581,0,0,202.418,333.325,147.014)"><stop offset="0" style="stop-color:#e96660;stop-opacity:1"/><stop offset="0.57" style="stop-color:#6aaf81;stop-opacity:1"/><stop offset="1" style="stop-color:#31d090;stop-opacity:1"/></linearGradient><linearGradient id="_Linear15" x1="0" y1="0" x2="1" y2="0" gradientUnits="userSpaceOnUse" gradientTransform="matrix(559.581,0,0,202.418,333.325,147.014)"><stop offset="0" style="stop-color:#e96660;stop-opacity:1"/><stop offset="0.57" style="stop-color:#6aaf81;stop-opacity:1"/><stop offset="1" style="stop-color:#31d090;stop-opacity:1"/></linearGradient><linearGradient id="_Linear16" x1="0" y1="0" x2="1" y2="0" gradientUnits="userSpaceOnUse" gradientTransform="matrix(559.581,0,0,202.418,333.325,147.014)"><stop offset="0" style="stop-color:#e96660;stop-opacity:1"/><stop offset="0.57" style="stop-color:#6aaf81;stop-opacity:1"/><stop offset="1" style="stop-color:#31d090;stop-opacity:1"/></linearGradient><linearGradient id="_Linear17" x1="0" y1="0" x2="1" y2="0" gradientUnits="userSpaceOnUse" gradientTransform="matrix(559.581,0,0,202.418,333.325,147.014)"><stop offset="0" style="stop-color:#e96660;stop-opacity:1"/><stop offset="0.57" style="stop-color:#6aaf81;stop-opacity:1"/><stop offset="1" style="stop-color:#31d090;stop-opacity:1"/></linearGradient></defs></svg>